<svg xmlns="http://www.w3.org/2000/svg" width="52" height="44" fill="none"><path fill="#289BC3" d="M37.399 36.55v-22.1h-34v22.1a1.7 1.7 0 0 0 1.7 1.7h30.6a1.7 1.7 0 0 0 1.7-1.7Z"/><path fill="#32283C" d="M13.601 33.15h-3.4a5.1 5.1 0 1 0 0 10.2h3.4a5.1 5.1 0 1 0 0-10.2ZM44.199 33.15h-3.4a5.1 5.1 0 1 0 0 10.2h3.4a5.1 5.1 0 1 0 0-10.2Z"/><path fill="#555A6E" d="M40.799 43.35a5.1 5.1 0 1 0 0-10.2 5.1 5.1 0 0 0 0 10.2Z"/><path fill="#E6E6EB" d="M40.798 39.95a1.7 1.7 0 1 0 0-3.4 1.7 1.7 0 0 0 0 3.4Z"/><path fill="#32283C" d="M30.601 33.15h-3.4a5.1 5.1 0 0 0 0 10.2h3.4a5.1 5.1 0 1 0 0-10.2Z"/><path fill="#A5C3DC" d="M47.602 16.15h-25.5a1.7 1.7 0 0 0-1.7 1.7v1.7h27.2a1.7 1.7 0 1 0 0-3.4Z"/><path fill="#D7E6F0" d="M30.602 16.15h-8.5a1.7 1.7 0 0 0-1.7 1.7v1.7h10.2a1.7 1.7 0 1 0 0-3.4Z"/><path fill="#463C4B" d="M20.402 19.55h27.2v8.5h-27.2v-8.5Z"/><path fill="#555A6E" d="M20.402 19.55h10.2v8.5h-10.2v-8.5Z"/><path fill="#A5C3DC" d="M49.302 38.25h-27.2a1.7 1.7 0 0 1-1.7-1.7v-8.5h27.2a3.4 3.4 0 0 1 3.4 3.4v5.1a1.7 1.7 0 0 1-1.7 1.7Z"/><path fill="#D7E6F0" d="M32.302 38.25h-10.2a1.7 1.7 0 0 1-1.7-1.7v-8.5h10.2a3.4 3.4 0 0 1 3.4 3.4v5.1a1.7 1.7 0 0 1-1.7 1.7Z"/><path fill="#555A6E" d="M38.107 31.45h8.784a2.408 2.408 0 1 1 0 4.817h-8.784a2.408 2.408 0 1 1 0-4.817Z"/><path fill="#00D2D2" d="M38.11 35.133a1.275 1.275 0 1 0 0-2.55 1.275 1.275 0 0 0 0 2.55ZM46.888 35.133a1.275 1.275 0 1 0 0-2.55 1.275 1.275 0 0 0 0 2.55Z"/><path fill="#A5C3DC" d="M16.15 0h-5.1a.85.85 0 0 0 0 1.7C14.33 1.7 17 4.37 17 7.65c0 .47.38.85.85.85h5.1c.47 0 .85-.38.85-.85C23.8 3.432 20.368 0 16.15 0Z"/><path fill="#A5C3DC" d="M29.75 0h-5.1C20.43 0 17 3.432 17 7.65c0 .47.38.85.85.85h5.1c.469 0 .85-.38.85-.85 0-3.28 2.669-5.95 5.95-5.95a.85.85 0 1 0 0-1.7Z"/><path fill="#A5C3DC" d="M33.15 0h-5.1a.85.85 0 0 0 0 1.7 2.553 2.553 0 0 1 2.55 2.55 2.553 2.553 0 0 1-2.55 2.55.85.85 0 0 0 0 1.7h5.1a4.255 4.255 0 0 0 4.25-4.25A4.255 4.255 0 0 0 33.15 0ZM12.749 6.8a2.553 2.553 0 0 1-2.55-2.55 2.553 2.553 0 0 1 2.55-2.55.85.85 0 0 0 0-1.7h-5.1a4.255 4.255 0 0 0-4.25 4.25 4.255 4.255 0 0 0 4.25 4.25h5.1a.85.85 0 0 0 0-1.7Z"/><path fill="#289BC3" d="M39.1 8.5H1.7A1.7 1.7 0 0 0 0 10.2v2.55a1.7 1.7 0 0 0 1.7 1.7h37.4a1.7 1.7 0 0 0 1.7-1.7V10.2a1.7 1.7 0 0 0-1.7-1.7Z"/><path fill="#00D2D2" d="M18.699 38.25h-13.6a1.7 1.7 0 0 1-1.7-1.7v-17h17v17a1.7 1.7 0 0 1-1.7 1.7ZM20.4 8.5H1.7A1.7 1.7 0 0 0 0 10.2v2.55a1.7 1.7 0 0 0 1.7 1.7h18.7a1.7 1.7 0 0 0 1.7-1.7V10.2a1.7 1.7 0 0 0-1.7-1.7Z"/><path fill="#D7E6F0" d="M11.898 12.75a1.7 1.7 0 0 0 1.7 1.7h-5.1a1.7 1.7 0 0 1-1.7-1.7V10.2a1.7 1.7 0 0 1 1.7-1.7h5.1a1.7 1.7 0 0 0-1.7 1.7v2.55Z"/><path fill="#A5C3DC" d="M28.903 12.75a1.7 1.7 0 0 1-1.7 1.7h5.1a1.7 1.7 0 0 0 1.7-1.7V10.2a1.7 1.7 0 0 0-1.7-1.7h-5.1a1.7 1.7 0 0 1 1.7 1.7v2.55Z"/><path fill="#D7E6F0" d="M28.053 8.5h-11.05v-.85c0-4.218 3.432-7.65 7.65-7.65h3.4a4.255 4.255 0 0 1 4.25 4.25 4.255 4.255 0 0 1-4.25 4.25Zm-9.29-1.7h9.29a2.553 2.553 0 0 0 2.55-2.55 2.553 2.553 0 0 0-2.55-2.55h-3.4a5.96 5.96 0 0 0-5.89 5.1Z"/><path fill="#D7E6F0" d="M18.699 8.5H7.649a4.255 4.255 0 0 1-4.25-4.25A4.255 4.255 0 0 1 7.649 0h3.4c4.218 0 7.65 3.432 7.65 7.65v.85ZM7.649 1.7a2.553 2.553 0 0 0-2.55 2.55 2.553 2.553 0 0 0 2.55 2.55h9.29a5.96 5.96 0 0 0-5.89-5.1h-3.4Z"/><path fill="#555A6E" d="M27.201 43.35a5.1 5.1 0 1 0 0-10.2 5.1 5.1 0 0 0 0 10.2Z"/><path fill="#E6E6EB" d="M27.2 39.95a1.7 1.7 0 1 0 0-3.4 1.7 1.7 0 0 0 0 3.4Z"/><path fill="#555A6E" d="M10.201 43.35a5.1 5.1 0 1 0 0-10.2 5.1 5.1 0 0 0 0 10.2Z"/><path fill="#E6E6EB" d="M10.197 39.95a1.7 1.7 0 1 0 0-3.4 1.7 1.7 0 0 0 0 3.4Z"/></svg>